<svg xmlns="http://www.w3.org/2000/svg" xmlns:xlink="http://www.w3.org/1999/xlink" width="250" zoomAndPan="magnify" viewBox="0 0 187.5 74.999997" height="100" preserveAspectRatio="xMidYMid meet" version="1.0"><defs><clipPath id="125e68f81b"><path d="M 10 23.253906 L 40 23.253906 L 40 51.679688 L 10 51.679688 Z M 10 23.253906 " clip-rule="nonzero"/></clipPath><clipPath id="dc9cb6d9ed"><path d="M 44 23.253906 L 75 23.253906 L 75 51.679688 L 44 51.679688 Z M 44 23.253906 " clip-rule="nonzero"/></clipPath><clipPath id="1cbb4fb178"><path d="M 79 23.253906 L 109 23.253906 L 109 51.679688 L 79 51.679688 Z M 79 23.253906 " clip-rule="nonzero"/></clipPath><clipPath id="44ddb127f1"><path d="M 112 23.253906 L 143 23.253906 L 143 51.679688 L 112 51.679688 Z M 112 23.253906 " clip-rule="nonzero"/></clipPath><clipPath id="fa22d477bf"><path d="M 147 23.253906 L 177 23.253906 L 177 51.679688 L 147 51.679688 Z M 147 23.253906 " clip-rule="nonzero"/></clipPath></defs><g clip-path="url(#125e68f81b)"><path fill="#d4705d" d="M 39.136719 33.59375 L 29.769531 32.230469 L 25.578125 23.738281 C 25.332031 23.246094 24.515625 23.246094 24.273438 23.738281 L 20.082031 32.230469 L 10.710938 33.59375 C 10.4375 33.632812 10.207031 33.824219 10.125 34.089844 C 10.039062 34.351562 10.109375 34.640625 10.308594 34.832031 L 17.089844 41.441406 L 15.488281 50.773438 C 15.441406 51.046875 15.554688 51.324219 15.777344 51.484375 C 16 51.648438 16.296875 51.667969 16.542969 51.539062 L 24.925781 47.132812 L 33.304688 51.539062 C 33.410156 51.597656 33.523438 51.625 33.644531 51.625 C 33.792969 51.625 33.941406 51.578125 34.070312 51.484375 C 34.292969 51.324219 34.402344 51.046875 34.355469 50.773438 L 32.757812 41.441406 L 39.539062 34.832031 C 39.738281 34.640625 39.808594 34.351562 39.726562 34.089844 C 39.640625 33.824219 39.414062 33.632812 39.136719 33.59375 Z M 39.136719 33.59375 " fill-opacity="1" fill-rule="nonzero"/></g><g clip-path="url(#dc9cb6d9ed)"><path fill="#d4705d" d="M 73.503906 33.59375 L 64.136719 32.230469 L 59.945312 23.738281 C 59.703125 23.246094 58.882812 23.246094 58.644531 23.738281 L 54.445312 32.230469 L 45.082031 33.59375 C 44.808594 33.632812 44.578125 33.824219 44.492188 34.089844 C 44.40625 34.351562 44.476562 34.640625 44.679688 34.832031 L 51.460938 41.441406 L 49.855469 50.773438 C 49.8125 51.046875 49.921875 51.324219 50.140625 51.484375 C 50.371094 51.648438 50.667969 51.667969 50.910156 51.539062 L 59.292969 47.132812 L 67.671875 51.539062 C 67.777344 51.597656 67.894531 51.625 68.011719 51.625 C 68.164062 51.625 68.3125 51.578125 68.441406 51.484375 C 68.660156 51.324219 68.773438 51.046875 68.726562 50.773438 L 67.125 41.441406 L 73.910156 34.832031 C 74.105469 34.640625 74.175781 34.351562 74.09375 34.089844 C 74.007812 33.824219 73.78125 33.632812 73.503906 33.59375 Z M 73.503906 33.59375 " fill-opacity="1" fill-rule="nonzero"/></g><g clip-path="url(#1cbb4fb178)"><path fill="#d4705d" d="M 108.230469 33.59375 L 98.863281 32.230469 L 94.667969 23.738281 C 94.425781 23.246094 93.609375 23.246094 93.367188 23.738281 L 89.171875 32.230469 L 79.804688 33.59375 C 79.53125 33.632812 79.300781 33.824219 79.21875 34.089844 C 79.132812 34.351562 79.199219 34.640625 79.402344 34.832031 L 86.183594 41.441406 L 84.578125 50.773438 C 84.53125 51.046875 84.644531 51.324219 84.871094 51.484375 C 85.089844 51.648438 85.390625 51.667969 85.636719 51.539062 L 94.015625 47.132812 L 102.398438 51.539062 C 102.5 51.597656 102.617188 51.625 102.734375 51.625 C 102.882812 51.625 103.035156 51.578125 103.160156 51.484375 C 103.382812 51.324219 103.496094 51.046875 103.449219 50.773438 L 101.851562 41.441406 L 108.628906 34.832031 C 108.828125 34.640625 108.898438 34.351562 108.816406 34.089844 C 108.730469 33.824219 108.503906 33.632812 108.230469 33.59375 Z M 108.230469 33.59375 " fill-opacity="1" fill-rule="nonzero"/></g><g clip-path="url(#44ddb127f1)"><path fill="#d4705d" d="M 141.910156 33.59375 L 132.539062 32.230469 L 128.347656 23.738281 C 128.101562 23.246094 127.285156 23.246094 127.046875 23.738281 L 122.851562 32.230469 L 113.484375 33.59375 C 113.207031 33.632812 112.984375 33.824219 112.894531 34.089844 C 112.808594 34.351562 112.878906 34.640625 113.078125 34.832031 L 119.859375 41.441406 L 118.257812 50.773438 C 118.210938 51.046875 118.320312 51.324219 118.546875 51.484375 C 118.769531 51.648438 119.066406 51.667969 119.3125 51.539062 L 127.695312 47.132812 L 136.074219 51.539062 C 136.179688 51.597656 136.296875 51.625 136.414062 51.625 C 136.5625 51.625 136.710938 51.578125 136.839844 51.484375 C 137.058594 51.324219 137.171875 51.046875 137.125 50.773438 L 135.527344 41.441406 L 142.308594 34.832031 C 142.503906 34.640625 142.574219 34.351562 142.492188 34.089844 C 142.40625 33.824219 142.179688 33.632812 141.910156 33.59375 Z M 141.910156 33.59375 " fill-opacity="1" fill-rule="nonzero"/></g><g clip-path="url(#fa22d477bf)"><path fill="#d4705d" d="M 176.859375 34.089844 C 176.773438 33.824219 176.539062 33.632812 176.269531 33.59375 L 166.898438 32.230469 L 162.707031 23.738281 C 162.464844 23.246094 161.648438 23.246094 161.402344 23.738281 L 157.214844 32.230469 L 147.84375 33.59375 C 147.570312 33.632812 147.34375 33.824219 147.257812 34.089844 C 147.167969 34.351562 147.238281 34.640625 147.441406 34.832031 L 154.222656 41.441406 L 152.621094 50.773438 C 152.574219 51.046875 152.683594 51.324219 152.910156 51.484375 C 153.132812 51.648438 153.429688 51.667969 153.675781 51.539062 L 162.054688 47.132812 L 170.4375 51.539062 C 170.542969 51.597656 170.65625 51.625 170.773438 51.625 C 170.925781 51.625 171.074219 51.578125 171.203125 51.484375 C 171.421875 51.324219 171.535156 51.046875 171.488281 50.773438 L 169.890625 41.441406 L 176.671875 34.832031 C 176.871094 34.640625 176.941406 34.351562 176.859375 34.089844 Z M 176.859375 34.089844 " fill-opacity="1" fill-rule="nonzero"/></g></svg>